<?xml version="1.0" encoding="utf-8"?>
<!-- Generator: Adobe Illustrator 19.2.1, SVG Export Plug-In . SVG Version: 6.00 Build 0)  -->
<!DOCTYPE svg PUBLIC "-//W3C//DTD SVG 1.1//EN" "http://www.w3.org/Graphics/SVG/1.1/DTD/svg11.dtd">
<svg version="1.1" id="Ebene_1" xmlns="http://www.w3.org/2000/svg" xmlns:xlink="http://www.w3.org/1999/xlink" x="0px" y="0px"
	 width="125px" height="144px" viewBox="0 0 125 144" style="enable-background:new 0 0 125 144;" xml:space="preserve">
<style type="text/css">
	.st0{fill:#FFFFFF;}
	.st1{fill:#669ED6;}
	.st2{clip-path:url(#SVGID_2_);fill:#659DD5;}
	.st3{clip-path:url(#SVGID_4_);fill:#659DD5;}
	.st4{clip-path:url(#SVGID_6_);fill:#659DD5;}
	.st5{clip-path:url(#SVGID_8_);fill:#659DD5;}
	.st6{clip-path:url(#SVGID_10_);fill:#659DD5;}
	.st7{clip-path:url(#SVGID_12_);fill:#659DD5;}
	.st8{clip-path:url(#SVGID_14_);fill:#659DD5;}
	.st9{clip-path:url(#SVGID_16_);fill:#659DD5;}
	.st10{clip-path:url(#SVGID_18_);fill:#659DD5;}
	.st11{clip-path:url(#SVGID_20_);fill:#659DD5;}
	.st12{clip-path:url(#SVGID_22_);fill:#659DD5;}
	.st13{clip-path:url(#SVGID_24_);fill:#659DD5;}
	.st14{clip-path:url(#SVGID_26_);fill:#659DD5;}
	.st15{clip-path:url(#SVGID_28_);fill:#659DD5;}
	.st16{clip-path:url(#SVGID_30_);fill:#659DD5;}
	.st17{clip-path:url(#SVGID_32_);fill:#659DD5;}
	
		.st18{clip-path:url(#SVGID_34_);fill:none;stroke:#659DD5;stroke-width:2;stroke-linecap:square;stroke-linejoin:round;stroke-miterlimit:10;}
	
		.st19{clip-path:url(#SVGID_36_);fill:none;stroke:#659DD5;stroke-width:2;stroke-linecap:square;stroke-linejoin:round;stroke-miterlimit:10;}
	
		.st20{clip-path:url(#SVGID_38_);fill:none;stroke:#659DD5;stroke-width:2;stroke-linecap:square;stroke-linejoin:round;stroke-miterlimit:10;}
	
		.st21{clip-path:url(#SVGID_40_);fill:none;stroke:#659DD5;stroke-width:2;stroke-linecap:square;stroke-linejoin:round;stroke-miterlimit:10;}
	
		.st22{clip-path:url(#SVGID_42_);fill:none;stroke:#659DD5;stroke-width:2;stroke-linecap:square;stroke-linejoin:round;stroke-miterlimit:10;}
	
		.st23{clip-path:url(#SVGID_44_);fill:none;stroke:#659DD5;stroke-width:2;stroke-linecap:square;stroke-linejoin:round;stroke-miterlimit:10;}
	.st24{clip-path:url(#SVGID_46_);fill:#FFFFFF;}
	.st25{clip-path:url(#SVGID_48_);fill:none;stroke:#659DD5;stroke-width:2;stroke-miterlimit:10;}
	.st26{clip-path:url(#SVGID_50_);fill:none;stroke:#659DD5;stroke-width:2;stroke-miterlimit:10;}
	.st27{clip-path:url(#SVGID_52_);fill:#FFFFFF;}
	.st28{clip-path:url(#SVGID_54_);fill:none;stroke:#659DD5;stroke-miterlimit:10;}
	.st29{clip-path:url(#SVGID_56_);fill:#659DD5;}
	.st30{clip-path:url(#SVGID_58_);fill:#659DD5;}
	.st31{clip-path:url(#SVGID_60_);fill:#659DD5;}
	.st32{clip-path:url(#SVGID_62_);fill:#659DD5;}
	.st33{clip-path:url(#SVGID_64_);fill:#659DD5;}
	.st34{clip-path:url(#SVGID_66_);fill:#659DD5;}
	.st35{clip-path:url(#SVGID_68_);fill:#659DD5;}
</style>
<polygon class="st0" points="2.5,106.6 2.5,37.4 62.5,2.9 122.5,37.4 122.5,106.6 62.5,141.1 "/>
<path class="st1" d="M62.5,5.8L120,38.9v66.2l-57.5,33.1L5,105.1V38.9L62.5,5.8z M62.5,0L0,36v72l62.5,36l62.5-36V36L62.5,0z"/>
<g>
	<defs>
		<rect id="SVGID_1_" x="-36.7" y="-27.2" width="198.4" height="198.4"/>
	</defs>
	<clipPath id="SVGID_2_">
		<use xlink:href="#SVGID_1_"  style="overflow:visible;"/>
	</clipPath>
	<path class="st2" d="M60.3,22.3c-0.2-0.1-0.3-0.2-0.5-0.2c-0.3,0-0.4,0.2-0.4,0.6v0.2h1.2v0.5h-1.2v2.6h-0.5v-2.6H58v-0.5h0.9v-0.2
		c0-0.7,0.4-1,0.9-1c0.3,0,0.5,0.1,0.6,0.2L60.3,22.3z"/>
</g>
<g>
	<defs>
		<rect id="SVGID_3_" x="-36.7" y="-27.2" width="198.4" height="198.4"/>
	</defs>
	<clipPath id="SVGID_4_">
		<use xlink:href="#SVGID_3_"  style="overflow:visible;"/>
	</clipPath>
	<path class="st3" d="M62.8,22.9c0.9,0,1.5,0.7,1.5,1.6c0,0.8-0.6,1.6-1.5,1.6s-1.5-0.7-1.5-1.6C61.3,23.6,61.8,22.9,62.8,22.9
		 M62.8,25.5c0.6,0,1-0.5,1-1.1c0-0.6-0.4-1.1-1-1.1s-1,0.5-1,1.1C61.8,25,62.1,25.5,62.8,25.5"/>
</g>
<g>
	<defs>
		<rect id="SVGID_5_" x="-36.7" y="-27.2" width="198.4" height="198.4"/>
	</defs>
	<clipPath id="SVGID_6_">
		<use xlink:href="#SVGID_5_"  style="overflow:visible;"/>
	</clipPath>
	<path class="st4" d="M67.2,23.9c0-0.3-0.2-0.6-0.6-0.6c-0.5,0-1,0.5-1,1.5v1.1h-0.5v-3h0.5v0.6c0.2-0.4,0.6-0.6,1.1-0.6
		c0.6,0,1,0.4,1,1H67.2z"/>
</g>
<g>
	<defs>
		<rect id="SVGID_7_" x="-36.7" y="-27.2" width="198.4" height="198.4"/>
	</defs>
	<clipPath id="SVGID_8_">
		<use xlink:href="#SVGID_7_"  style="overflow:visible;"/>
	</clipPath>
	<polygon class="st5" points="58.8,12.7 58.8,12.8 58.8,19.2 59.3,19.2 59.5,19.2 59.6,19.2 59.6,12.7 	"/>
</g>
<g>
	<defs>
		<rect id="SVGID_9_" x="-36.7" y="-27.2" width="198.4" height="198.4"/>
	</defs>
	<clipPath id="SVGID_10_">
		<use xlink:href="#SVGID_9_"  style="overflow:visible;"/>
	</clipPath>
	<path class="st6" d="M62,19.8c0.1,0,0.1,0,0.1-0.1v-7.6c0-0.1-0.1-0.1-0.1-0.1h-2.5c-0.1,0-0.1,0-0.1,0.1v0.2v0.5
		c0,0.1,0,0.1,0.1,0.1h1.7c0.1,0,0.1,0,0.1,0.1v6c0,0.1-0.1,0.1-0.1,0.1h-1.7c-0.1,0-0.1,0-0.1,0v0.2v0.5c0,0.1,0,0.1,0.1,0.1H62z"
		/>
</g>
<g>
	<defs>
		<rect id="SVGID_11_" x="-36.7" y="-27.2" width="198.4" height="198.4"/>
	</defs>
	<clipPath id="SVGID_12_">
		<use xlink:href="#SVGID_11_"  style="overflow:visible;"/>
	</clipPath>
	<polygon class="st7" points="63.2,12.7 63.2,12.8 63.2,19.2 63.8,19.2 64,19.2 64,12.7 	"/>
</g>
<g>
	<defs>
		<rect id="SVGID_13_" x="-36.7" y="-27.2" width="198.4" height="198.4"/>
	</defs>
	<clipPath id="SVGID_14_">
		<use xlink:href="#SVGID_13_"  style="overflow:visible;"/>
	</clipPath>
	<path class="st8" d="M63.9,19.8V19c1.1,0,1.9-1.4,1.9-3.1c0-1.7-0.8-3.1-1.9-3.1V12c1.5,0,2.7,1.7,2.7,3.9
		C66.6,18.1,65.4,19.8,63.9,19.8"/>
</g>
<g>
	<defs>
		<rect id="SVGID_15_" x="-36.7" y="-27.2" width="198.4" height="198.4"/>
	</defs>
	<clipPath id="SVGID_16_">
		<use xlink:href="#SVGID_15_"  style="overflow:visible;"/>
	</clipPath>
	<path class="st9" d="M55.5,17.3v1.1v0.4c0,0.6,0.4,1,1,1h0.2h0.5h0.6c0,0,0.1-0.1,0.1-0.1v-0.6c0-0.1-0.1-0.1-0.1-0.1h-0.6h-0.3
		h-0.2c-0.3,0-0.3-0.1-0.3-0.4v-0.2v-1v-0.6c0-0.6-0.2-0.8-0.6-0.9c0.3-0.1,0.6-0.3,0.6-0.9v-0.4v-1.1v-0.3c0-0.3,0.1-0.4,0.3-0.4
		h0.2h0.3h0.6c0,0,0.1,0,0.1-0.1v-0.6c0-0.1-0.1-0.1-0.1-0.1h-0.5h-0.5h-0.3c-0.6,0-1,0.4-1,1v0.3v1.3c0,0,0,0.3,0,0.4
		c0,0.3-0.4,0.5-0.6,0.5h-0.3c-0.1,0-0.1,0-0.1,0.1v0.6c0,0.1,0,0.1,0.1,0.1h0.3c0.3,0,0.6,0.2,0.6,0.6C55.5,17,55.5,17.3,55.5,17.3
		"/>
</g>
<g>
	<defs>
		<rect id="SVGID_17_" x="-36.7" y="-27.2" width="198.4" height="198.4"/>
	</defs>
	<clipPath id="SVGID_18_">
		<use xlink:href="#SVGID_17_"  style="overflow:visible;"/>
	</clipPath>
	<path class="st10" d="M59.5,12h-0.3h-0.3c-0.1,0-0.1,0-0.1,0.1v0.2v0.4v0.1h0.1h0.6h0.1v-0.1v-0.6V12H59.5z"/>
</g>
<g>
	<defs>
		<rect id="SVGID_19_" x="-36.7" y="-27.2" width="198.4" height="198.4"/>
	</defs>
	<clipPath id="SVGID_20_">
		<use xlink:href="#SVGID_19_"  style="overflow:visible;"/>
	</clipPath>
	<path class="st11" d="M58.8,19.1v0.3v0.3c0,0.1,0,0.1,0.1,0.1h0.2h0.4h0.1v-0.1v-0.6V19h-0.1L58.8,19.1L58.8,19.1L58.8,19.1z"/>
</g>
<g>
	<defs>
		<rect id="SVGID_21_" x="-36.7" y="-27.2" width="198.4" height="198.4"/>
	</defs>
	<clipPath id="SVGID_22_">
		<use xlink:href="#SVGID_21_"  style="overflow:visible;"/>
	</clipPath>
	<path class="st12" d="M63.8,12h-0.3h-0.3c-0.1,0-0.1,0-0.1,0.1v0.2v0.4v0.1h0.1h0.6H64v-0.1v-0.6V12H63.8z"/>
</g>
<g>
	<defs>
		<rect id="SVGID_23_" x="-36.7" y="-27.2" width="198.4" height="198.4"/>
	</defs>
	<clipPath id="SVGID_24_">
		<use xlink:href="#SVGID_23_"  style="overflow:visible;"/>
	</clipPath>
	<path class="st13" d="M63.2,19.1v0.3v0.3c0,0.1,0,0.1,0.1,0.1h0.2h0.4H64v-0.1v-0.6V19h-0.1L63.2,19.1L63.2,19.1L63.2,19.1
		L63.2,19.1z"/>
</g>
<g>
	<defs>
		<rect id="SVGID_25_" x="-36.7" y="-27.2" width="198.4" height="198.4"/>
	</defs>
	<clipPath id="SVGID_26_">
		<use xlink:href="#SVGID_25_"  style="overflow:visible;"/>
	</clipPath>
	<path class="st14" d="M68.2,17.3v1.1v0.4c0,0.6,0.4,1,1,1h0.2h0.5h0.6c0,0,0.1-0.1,0.1-0.1v-0.6c0-0.1-0.1-0.1-0.1-0.1h-0.6h-0.3
		h-0.2c-0.3,0-0.3-0.1-0.3-0.4v-0.2v-1v-0.6c0-0.2-0.1-0.4-0.1-0.5h-1.4c0.4,0.1,0.5,0.2,0.6,0.6C68.2,17.1,68.2,17.3,68.2,17.3"/>
</g>
<g>
	<defs>
		<rect id="SVGID_27_" x="-36.7" y="-27.2" width="198.4" height="198.4"/>
	</defs>
	<clipPath id="SVGID_28_">
		<use xlink:href="#SVGID_27_"  style="overflow:visible;"/>
	</clipPath>
	<path class="st15" d="M68.2,15.1c-0.1,0.3-0.3,0.4-0.6,0.5h1.3c0.1-0.2,0.2-0.3,0.2-0.6v-0.4v-1.1v-0.3c0-0.3,0.1-0.4,0.3-0.4h0.2
		h0.3h0.6c0,0,0.1,0,0.1-0.1v-0.6c0-0.1-0.1-0.1-0.1-0.1h-0.5h-0.5h-0.3c-0.6,0-1,0.4-1,1v0.3v1.3C68.2,14.7,68.2,14.9,68.2,15.1"/>
</g>
<g>
	<defs>
		<rect id="SVGID_29_" x="-36.7" y="-27.2" width="198.4" height="198.4"/>
	</defs>
	<clipPath id="SVGID_30_">
		<use xlink:href="#SVGID_29_"  style="overflow:visible;"/>
	</clipPath>
	<path class="st16" d="M68.4,16c0.2,0.1,0.4,0.2,0.6,0.4h1.5c0.1,0,0.1,0,0.1-0.1v-0.6c0-0.1-0.1-0.1-0.1-0.1h-1.5
		C68.8,15.8,68.5,15.9,68.4,16"/>
</g>
<g>
	<defs>
		<rect id="SVGID_31_" x="-36.7" y="-27.2" width="198.4" height="198.4"/>
	</defs>
	<clipPath id="SVGID_32_">
		<use xlink:href="#SVGID_31_"  style="overflow:visible;"/>
	</clipPath>
	<path class="st17" d="M67.3,15.6C67.2,15.6,67.2,15.6,67.3,15.6l-0.1,0.7c0,0.1,0,0.1,0.1,0.1h0.3h1.4c-0.1-0.2-0.3-0.3-0.5-0.4
		c0.2-0.1,0.3-0.2,0.4-0.4h-1.3H67.3z"/>
</g>
<g>
	<defs>
		<rect id="SVGID_33_" x="-36.7" y="-27.2" width="198.4" height="198.4"/>
	</defs>
	<clipPath id="SVGID_34_">
		<use xlink:href="#SVGID_33_"  style="overflow:visible;"/>
	</clipPath>
	<path class="st18" d="M57.3,66c-3.6,0-4.1,4.1-8.7,4.1c-5.1,0-4-4.1-8.7-4.1c-4.5,0-4.8,4.1-8.7,4.1c-4.6,0-4.6-4.1-8.7-4.1
		c-5,0-4.8,4.1-8.7,4.1c-4.2,0-4-4.1-8.7-4.1"/>
</g>
<g>
	<defs>
		<rect id="SVGID_35_" x="-36.7" y="-27.2" width="198.4" height="198.4"/>
	</defs>
	<clipPath id="SVGID_36_">
		<use xlink:href="#SVGID_35_"  style="overflow:visible;"/>
	</clipPath>
	<path class="st19" d="M119.3,66c-3.6,0-4.1,4.1-8.7,4.1c-5.1,0-4-4.1-8.7-4.1c-4.5,0-4.8,4.1-8.7,4.1c-4.6,0-4.6-4.1-8.7-4.1
		c-5,0-4.8,4.1-8.7,4.1c-4.2,0-4-4.1-8.7-4.1"/>
</g>
<g>
	<defs>
		<rect id="SVGID_37_" x="-36.7" y="-27.2" width="198.4" height="198.4"/>
	</defs>
	<clipPath id="SVGID_38_">
		<use xlink:href="#SVGID_37_"  style="overflow:visible;"/>
	</clipPath>
	<path class="st20" d="M57.3,72.4c-3.6,0-4.1,4.1-8.7,4.1c-5.1,0-4-4.1-8.7-4.1c-4.5,0-4.8,4.1-8.7,4.1c-4.6,0-4.6-4.1-8.7-4.1
		c-5,0-4.8,4.1-8.7,4.1c-4.2,0-4-4.1-8.7-4.1"/>
</g>
<g>
	<defs>
		<rect id="SVGID_39_" x="-36.7" y="-27.2" width="198.4" height="198.4"/>
	</defs>
	<clipPath id="SVGID_40_">
		<use xlink:href="#SVGID_39_"  style="overflow:visible;"/>
	</clipPath>
	<path class="st21" d="M119.3,72.4c-3.6,0-4.1,4.1-8.7,4.1c-5.1,0-4-4.1-8.7-4.1c-4.5,0-4.8,4.1-8.7,4.1c-4.6,0-4.6-4.1-8.7-4.1
		c-5,0-4.8,4.1-8.7,4.1c-4.2,0-4-4.1-8.7-4.1"/>
</g>
<g>
	<defs>
		<rect id="SVGID_41_" x="-36.7" y="-27.2" width="198.4" height="198.4"/>
	</defs>
	<clipPath id="SVGID_42_">
		<use xlink:href="#SVGID_41_"  style="overflow:visible;"/>
	</clipPath>
	<path class="st22" d="M57.3,78.8c-3.6,0-4.1,4.1-8.7,4.1c-5.1,0-4-4.1-8.7-4.1c-4.5,0-4.8,4.1-8.7,4.1c-4.6,0-4.6-4.1-8.7-4.1
		c-5,0-4.8,4.1-8.7,4.1c-4.2,0-4-4.1-8.7-4.1"/>
</g>
<g>
	<defs>
		<rect id="SVGID_43_" x="-36.7" y="-27.2" width="198.4" height="198.4"/>
	</defs>
	<clipPath id="SVGID_44_">
		<use xlink:href="#SVGID_43_"  style="overflow:visible;"/>
	</clipPath>
	<path class="st23" d="M119.3,78.8c-3.6,0-4.1,4.1-8.7,4.1c-5.1,0-4-4.1-8.7-4.1c-4.5,0-4.8,4.1-8.7,4.1c-4.6,0-4.6-4.1-8.7-4.1
		c-5,0-4.8,4.1-8.7,4.1c-4.2,0-4-4.1-8.7-4.1"/>
</g>
<g>
	<defs>
		<rect id="SVGID_45_" x="-36.7" y="-27.2" width="198.4" height="198.4"/>
	</defs>
	<clipPath id="SVGID_46_">
		<use xlink:href="#SVGID_45_"  style="overflow:visible;"/>
	</clipPath>
	<path class="st24" d="M97.3,101.2l-2.5-12.8l-11.2,7.7l4.7,1.7c-5.1,9.6-13,15.2-22,16.3V58.8h24v-9H68.2c3.3-2,5.5-5.2,5.5-9.3
		c0-6.4-5.2-11.3-11.5-11.3c-6.4,0-11.5,4.8-11.5,11.2c0,4.1,2.2,7.4,5.5,9.4H33.3v9h24V114c-9-1.5-15.4-6.7-20.3-15.3l4.3-1.6
		l-11.4-9l-2.3,14l4.7-1.8c8.8,30.7,50.8,30.9,60.5-0.9L97.3,101.2z"/>
</g>
<g>
	<defs>
		<rect id="SVGID_47_" x="-36.7" y="-27.2" width="198.4" height="198.4"/>
	</defs>
	<clipPath id="SVGID_48_">
		<use xlink:href="#SVGID_47_"  style="overflow:visible;"/>
	</clipPath>
	<path class="st25" d="M97.3,101.2l-2.5-12.8l-11.2,7.7l4.7,1.7c-5.1,9.6-13,15.2-22,16.3V58.8h24v-9H68.2c3.3-2,5.5-5.2,5.5-9.3
		c0-6.4-5.2-11.3-11.5-11.3c-6.4,0-11.5,4.8-11.5,11.2c0,4.1,2.2,7.4,5.5,9.4H33.3v9h24V114c-9-1.5-15.4-6.7-20.3-15.3l4.3-1.6
		l-11.4-9l-2.3,14l4.7-1.8c8.8,30.7,50.8,30.9,60.5-0.9L97.3,101.2z"/>
</g>
<g>
	<defs>
		<rect id="SVGID_49_" x="-36.7" y="-27.2" width="198.4" height="198.4"/>
	</defs>
	<clipPath id="SVGID_50_">
		<use xlink:href="#SVGID_49_"  style="overflow:visible;"/>
	</clipPath>
	<circle class="st26" cx="62.2" cy="40.5" r="4.5"/>
</g>
<g>
	<defs>
		<rect id="SVGID_51_" x="-36.7" y="-27.2" width="198.4" height="198.4"/>
	</defs>
	<clipPath id="SVGID_52_">
		<use xlink:href="#SVGID_51_"  style="overflow:visible;"/>
	</clipPath>
	<rect x="39.8" y="71.3" class="st27" width="46" height="13"/>
</g>
<g>
	<defs>
		<rect id="SVGID_53_" x="-36.7" y="-27.2" width="198.4" height="198.4"/>
	</defs>
	<clipPath id="SVGID_54_">
		<use xlink:href="#SVGID_53_"  style="overflow:visible;"/>
	</clipPath>
	<rect x="39.8" y="71.3" class="st28" width="46" height="13"/>
</g>
<g>
	<defs>
		<rect id="SVGID_55_" x="-36.7" y="-27.2" width="198.4" height="198.4"/>
	</defs>
	<clipPath id="SVGID_56_">
		<use xlink:href="#SVGID_55_"  style="overflow:visible;"/>
	</clipPath>
	<polygon class="st29" points="43.2,73.7 44.3,73.7 44.3,76.4 47.1,76.4 47.1,73.7 48.2,73.7 48.2,80.7 47.1,80.7 47.1,77.5 
		44.3,77.5 44.3,80.7 43.2,80.7 	"/>
</g>
<g>
	<defs>
		<rect id="SVGID_57_" x="-36.7" y="-27.2" width="198.4" height="198.4"/>
	</defs>
	<clipPath id="SVGID_58_">
		<use xlink:href="#SVGID_57_"  style="overflow:visible;"/>
	</clipPath>
	<path class="st30" d="M51.6,77.6h0.9v-0.2c0-0.6-0.5-0.9-1-0.9c-0.4,0-0.8,0.2-0.9,0.7l-0.9-0.2c0.2-0.8,0.9-1.4,1.9-1.4
		c1.2,0,2,0.5,2,2v3.1h-0.9L52.6,80c-0.3,0.5-0.8,0.7-1.6,0.7c-0.8,0-1.5-0.5-1.5-1.5C49.5,78.2,50.4,77.6,51.6,77.6 M51.2,79.8
		c0.6,0,1.3-0.4,1.3-1.3v-0.1h-0.9c-0.6,0-1,0.3-1,0.8C50.6,79.6,50.8,79.8,51.2,79.8"/>
</g>
<g>
	<defs>
		<rect id="SVGID_59_" x="-36.7" y="-27.2" width="198.4" height="198.4"/>
	</defs>
	<clipPath id="SVGID_60_">
		<use xlink:href="#SVGID_59_"  style="overflow:visible;"/>
	</clipPath>
	<path class="st31" d="M55.9,75.6v0.9c0.4-0.6,0.9-0.9,1.5-0.9c0.7,0,1.2,0.4,1.4,1c0.3-0.7,0.9-1,1.6-1c0.9,0,1.4,0.6,1.4,1.5v3.6
		h-1v-3.4c0-0.5-0.3-0.8-0.7-0.8c-0.6,0-1.2,0.8-1.2,2.2v2h-1v-3.4c0-0.5-0.3-0.8-0.7-0.8c-0.6,0-1.2,0.8-1.2,2.3v1.9h-1v-5
		L55.9,75.6L55.9,75.6z"/>
</g>
<g>
	<defs>
		<rect id="SVGID_61_" x="-36.7" y="-27.2" width="198.4" height="198.4"/>
	</defs>
	<clipPath id="SVGID_62_">
		<use xlink:href="#SVGID_61_"  style="overflow:visible;"/>
	</clipPath>
	<path class="st32" d="M65.6,80.8c-0.7,0-1.2-0.4-1.4-0.7v0.6h-1v-7.1h1v2.6c0.2-0.3,0.8-0.6,1.3-0.6c1.5,0,2.3,1,2.3,2.6
		C67.9,79.8,67.1,80.8,65.6,80.8 M65.5,76.5c-0.8,0-1.3,0.6-1.3,1.7c0,1,0.5,1.7,1.3,1.7c0.7,0,1.3-0.6,1.3-1.7S66.2,76.5,65.5,76.5
		"/>
</g>
<g>
	<defs>
		<rect id="SVGID_63_" x="-36.7" y="-27.2" width="198.4" height="198.4"/>
	</defs>
	<clipPath id="SVGID_64_">
		<use xlink:href="#SVGID_63_"  style="overflow:visible;"/>
	</clipPath>
	<path class="st33" d="M72.1,80.7v-0.9c-0.4,0.6-1,0.9-1.6,0.9c-0.9,0-1.5-0.5-1.5-1.5v-3.6h1v3.3c0,0.7,0.3,0.9,0.8,0.9
		c0.7,0,1.3-0.8,1.3-2.2v-2h1v5H72.1z"/>
</g>
<g>
	<defs>
		<rect id="SVGID_65_" x="-36.7" y="-27.2" width="198.4" height="198.4"/>
	</defs>
	<clipPath id="SVGID_66_">
		<use xlink:href="#SVGID_65_"  style="overflow:visible;"/>
	</clipPath>
	<path class="st34" d="M74.7,80.7v-5h1v0.8c0.3-0.6,1-0.9,1.5-0.9c0.3,0,0.5,0.1,0.6,0.1l-0.2,0.9c-0.2-0.1-0.4-0.1-0.6-0.1
		c-0.7,0-1.4,0.7-1.4,2.3v1.9H74.7z"/>
</g>
<g>
	<defs>
		<rect id="SVGID_67_" x="-36.7" y="-27.2" width="198.4" height="198.4"/>
	</defs>
	<clipPath id="SVGID_68_">
		<use xlink:href="#SVGID_67_"  style="overflow:visible;"/>
	</clipPath>
	<path class="st35" d="M80.2,75.6c0.3,0,0.7,0.1,0.9,0.2l0.9-0.5l0.4,0.7l-0.7,0.4c0.1,0.2,0.2,0.5,0.2,0.8c0,1.1-0.8,1.7-1.8,1.7
		c-0.3,0-0.6-0.1-0.8-0.1c-0.2,0.1-0.3,0.2-0.3,0.4c0,0.3,0.2,0.4,0.5,0.4h1.1c1,0,1.7,0.5,1.7,1.4c0,1.2-1.1,1.7-2.2,1.7
		c-1.3,0-2.2-0.6-2.2-1.7c0-0.4,0.2-0.8,0.4-1c-0.2-0.2-0.3-0.4-0.3-0.8c0-0.4,0.2-0.8,0.6-1c-0.2-0.3-0.3-0.6-0.3-1.1
		C78.4,76.2,79.2,75.6,80.2,75.6 M79.7,80.5c-0.2,0-0.3,0-0.5,0c-0.2,0.2-0.2,0.4-0.2,0.6c0,0.5,0.5,0.8,1.2,0.8
		c0.7,0,1.1-0.3,1.1-0.8c0-0.5-0.3-0.6-0.8-0.6L79.7,80.5L79.7,80.5z M80.2,78.1c0.5,0,0.8-0.3,0.8-0.8c0-0.5-0.3-0.8-0.8-0.8
		c-0.5,0-0.8,0.3-0.8,0.8C79.4,77.7,79.8,78.1,80.2,78.1"/>
</g>
</svg>
